# xmcd
#
# Track frame offsets: 
#        150
#        20588
#        46055
#        66977
#        101546
#        122581
#        148262
#        169995
#        189710
#        216215
#
# Disc length: 3088 seconds
#
# Revision: 1
# Processed by: cddbd v1.5.2PL0 Copyright (c) Steve Scherf et al.
# Submitted via: ExactAudioCopy v0.99pb5
#
DISCID=950c0e0a
DTITLE=Jimmy Thackery and The Cate Brothers - In The Natural State
DYEAR=2006
DGENRE=Blues
TTITLE0=Out Of Mississippi
TTITLE1=Arky Shuffle
TTITLE2=I Got A Rich Man's Woman
TTITLE3=Levee Prayer
TTITLE4=Ain't That A Lot Of Love
TTITLE5=I'll Come Running Back To You
TTITLE6=Hoodoo Man Blues
TTITLE7=Snatch It Back And Hold It
TTITLE8=Howlin' For My Darling
TTITLE9=Tell Me Goodbye
EXTD=YEAR: 2006
EXTT0=
EXTT1=
EXTT2=
EXTT3=
EXTT4=
EXTT5=
EXTT6=
EXTT7=
EXTT8=
EXTT9=
PLAYORDER=
